<svg xmlns="http://www.w3.org/2000/svg" width="1821.3" height="1024">
  <defs>
    <clipPath id="a">
      <path d="M0 768h1366V0H0z"/>
    </clipPath>
  </defs>

  <g clip-path="url(#a)"
     transform="matrix(1.33333 0 0 -1.33333 0 1024)">
    <path fill="#d8542b"
          d="M321.2 295.1c-5.5 1.7-12 3.2-19.3 4.5-7.3 1.3-12 2.4-14.1 3.4-2.2 1-3.2 2.6-3.2 4.7 0 2.3 1 4 3.2 5a19 19 0 0 0 7.8 1.4c2.7 0 5.8-.3 9.2-.9a31 31 0 0 0 8.5-2.6c2.2-1 3.8-2 4.8-3 1-.8 2-2 3-3.5l19.4 16.2a80 80 0 0 1-6.6 6.2c-2.1 1.8-6 4-11.7 6.9a59.6 59.6 0 0 1-25.5 4.2 60 60 0 0 1-24.9-5c-7.2-3.2-12-7.5-14.5-13a36 36 0 0 1-3.7-14.6c0-9 2.7-15.6 8-19.6 5.3-4 10-6.6 14.1-7.7 4.2-1 9.8-2.3 17-3.7 7.2-1.5 11.7-2.5 13.6-3.1 2-.7 3.2-1.5 3.8-2.6.6-1 .9-2.1.9-3.2 0-3-1.7-5-5-6a39.5 39.5 0 0 0-30.7 4.3c-2 1.4-4 3.8-6.2 7.2l-23.6-15.2c3.5-4.2 7.2-8 11-11a39 39 0 0 1 13.9-6.9 88.5 88.5 0 0 1 24.8-3.5c5.7 0 12 .7 19 2.3 7 1.5 12.5 4.3 16.4 8.3 4 4 6.7 7.9 8.3 11.4 1.5 3.6 2.3 7.7 2.3 12.5a25 25 0 0 1-5.9 17.8 32 32 0 0 1-14.1 8.8M382 277.4h43.3v21h-43.2v14.4h46.3v21.5h-77.2v-97.4h81.3V258h-50.4zM517.6 312.8v21.5h-77.2v-97.4h81.3V258h-50.4v19.4h43.3v21h-43.3v14.4zM588.2 261.1a9.5 9.5 0 0 0-4-2.7c-1.2-.3-2.7-.5-4.4-.5h-19.3v18.9h18.6a16 16 0 0 0 7.6-1.9c2.4-1.2 3.5-3.8 3.5-7.8 0-2.5-.6-4.5-2-6m-27.7 52.6h17.7c2.4 0 4.6-.5 6.5-1.6 2-1 3-3.3 3-6.8 0-4.2-1.3-6.6-3.7-7.2-2.5-.6-4.6-.9-6.5-.9h-17zm59.6-40.2c-1 2.8-2.4 5.3-4.5 7.4-2 2-4 3.4-5.6 4.2-1.7.7-3.8 1.5-6.4 2.2 2.4 1.2 4.1 2 5 2.6A21.3 21.3 0 0 1 617 300a26.6 26.6 0 0 1 .2 18.9 22 22 0 0 1-16.5 13.8 57 57 0 0 1-13.2 1.6h-57.8v-97.4h59.7c5.2 0 9.8.5 14 1.5 4.1 1 7.6 3 10.5 5.9 2.8 2.9 4.8 6 6 9.4 1.1 3.4 1.7 7.1 1.7 11 0 3-.5 6-1.5 8.8M684.8 293.4c-3-1.4-6.4-2.1-10.6-2.1h-12.8v22.8H674c4.2 0 7.8-.7 10.7-2 2.9-1.5 4.3-4.6 4.3-9.5 0-4.8-1.4-7.8-4.3-9.2m22.5-13.8c1.8 1 4 2.7 6.3 5.2 2.5 2.5 4.1 5.4 5 8.7a36.4 36.4 0 0 1-2.7 26.2c-2.6 5.4-6.2 9-10.5 10.8-4.4 1.9-8.6 3-12.5 3.4-3.9.4-8.5.6-13.8.6h-48.7V237h31v34.4h9l19-34.4h34.3l-23.8 39.3c3.1 1.2 5.6 2.3 7.4 3.4M799.6 357.6h-22.9v-16.3h23zM785.8 273.5c0-2.6-.2-4.9-.7-6.8-.4-2-1.3-3.5-2.7-4.8a14.2 14.2 0 0 0-4.4-2.8 16.3 16.3 0 0 0-11.2 0 11.6 11.6 0 0 0-7 6.8c-.6 1.6-1 4-1 7.6v60.8H728v-58a70 70 0 0 1 1.8-17.1c1.2-4.7 3.8-9 7.8-12.9 4-3.9 9-6.9 15-9a59.3 59.3 0 0 1 38.8.1 44.3 44.3 0 0 1 15.1 9.5c4.4 4.2 7.3 9.1 8.6 14.8 1.2 5.7 1.9 12.6 1.9 20.7v51.9h-31zM745 341.3h23v16.3h-23zM890.7 262.8a18.4 18.4 0 0 0-12.2-4.1c-7.1 0-12.3 2.7-15.6 8-3.3 5.4-5 12-5 20.2 0 3.7.5 7.5 1.3 11.5.9 4 2.5 7.1 4.8 9.3 2.3 2.2 4.5 3.9 6.6 4.9 2.1 1 4.7 1.5 7.8 1.5 5.7 0 10-1.6 12.9-4.6 2.9-3.1 5.3-7 7.2-11.6l25.9 12.9a64.6 64.6 0 0 1-3.7 6.1 77 77 0 0 1-7 7.8 43.4 43.4 0 0 1-15.2 9.4c-6.6 2.6-13.7 3.9-21.4 3.9-15.6 0-28-5.3-37-15.8-9-10.6-13.5-23-13.5-37.1 0-13.8 4.3-25.8 13-36s21.2-15.3 37.5-15.3c7.1 0 14 1.3 20.7 3.7a41.5 41.5 0 0 1 22.3 16.8 145 145 0 0 1 4.4 7.7l-26.3 12.7a25.8 25.8 0 0 0-7.5-11.9M1034 236.9l-36.3 60.4 34 37H994l-30.7-37v37h-30.8v-97.4h31v23l14.3 16 21.6-39zM1069.8 258v19.4h43.2v21h-43.2v14.4h46.3v21.5h-77.2v-97.4h81.3V258zM279.8 186.3a29.3 29.3 0 0 1-7.8 2.4l-4.6 1.1a21 21 0 0 0-5.9 2.1c-1.4.9-2 2.3-2 4.3s.8 3.6 2.6 4.7c1.7 1.1 4 1.7 6.6 1.7a17 17 0 0 0 4-.4c1.2-.3 2.3-1 3.5-1.8 1.2-.8 2-1.9 2.4-3 .4-1.3.6-2.4.6-3.5l5.5.3c-.3 1.9-.8 3.6-1.5 5.2-.7 1.7-2 3.1-3.6 4.4-1.8 1.2-3.5 2-5.4 2.4a28.2 28.2 0 0 1-11.4 0c-2-.5-3.5-1.3-4.8-2.5a14 14 0 0 1-3.1-3.6 9.3 9.3 0 0 1-1.1-4.7c0-3.7 1.3-6.4 4-8a35 35 0 0 1 10.6-3.6l3.4-.7c2.4-.5 4.3-1.2 5.7-2.2 1.3-1 2-2.5 2-4.6a7 7 0 0 0-2.8-6c-2-1.5-4.4-2.2-7.3-2.2-1.6 0-3.1.3-4.6.7-1.5.4-2.9 1.2-4 2.3a8 8 0 0 0-2.5 3.6c-.4 1.4-.6 2.7-.6 4l-5.9-.7c0-4.6 1.5-8 4.6-10.5A20 20 0 0 1 269 164c1.8 0 3.7.2 5.7.6 1.9.4 3.7 1.2 5.5 2.4a11.6 11.6 0 0 1 3.6 15.5 8.4 8.4 0 0 1-4.1 4M326.3 171.5a14 14 0 0 0-8.8-3 13 13 0 0 0-10.8 4.7 19.2 19.2 0 0 0-3.8 12.5c0 2.2.3 4.3.8 6.4a15 15 0 0 0 2.7 5.4c1.2 1.6 2.8 2.8 4.8 3.7a15.5 15.5 0 0 0 12.6 0 12.8 12.8 0 0 0 5.9-5.5l1-2.5 5.4 1.1a18.5 18.5 0 0 1-6.8 9.4c-3 2-7 3.1-11.7 3.1-6.7 0-11.9-2-15.4-6-3.6-4.2-5.3-9.3-5.3-15.4A23 23 0 0 1 302 170c3.5-4.1 8.4-6.2 14.8-6.2 5.5 0 10 1.6 13.5 4.7a21 21 0 0 1 6.6 11.2l-6 .7c-.5-4-2-7-4.6-9M375.4 188.4h-22.2v17.4h-5.4V165h5.4v18.6h22.2V165h5.5v40.8h-5.5zM403.8 182l6.2 17 6-17zm3.4 23.8L391.7 165h5.8l4.5 12.4h15.6L422 165h5.8L413 205.8zM438.8 165h5.4V184h19.3v4.8h-19.3v12H465v4.9h-26.2zM475.9 165h5.4V184h19.3v4.8h-19.3v12h20.8v4.9h-26.2zM509 201h12.3v-36h5.5v36H539v4.8h-30zM602.6 186.3a29.4 29.4 0 0 1-7.8 2.4l-4.5 1.1a21 21 0 0 0-6 2.1c-1.3.9-2 2.3-2 4.3s.9 3.6 2.6 4.7c1.8 1.1 4 1.7 6.6 1.7a17 17 0 0 0 4-.4c1.2-.3 2.4-1 3.6-1.8 1.2-.8 2-1.9 2.4-3 .4-1.3.6-2.4.6-3.5l5.5.3c-.3 1.9-.8 3.6-1.5 5.2-.8 1.7-2 3.1-3.7 4.4-1.7 1.2-3.5 2-5.3 2.4a28.2 28.2 0 0 1-11.5 0c-1.9-.5-3.5-1.3-4.8-2.5a14 14 0 0 1-3-3.6 9.3 9.3 0 0 1-1.1-4.7c0-3.7 1.3-6.4 4-8a35 35 0 0 1 10.5-3.6l3.4-.7c2.5-.5 4.4-1.2 5.7-2.2 1.4-1 2-2.5 2-4.6a7 7 0 0 0-2.8-6c-1.9-1.5-4.3-2.2-7.3-2.2-1.5 0-3 .3-4.6.7-1.5.4-2.8 1.2-4 2.3a8 8 0 0 0-2.4 3.6c-.5 1.4-.7 2.7-.7 4l-5.8-.7c0-4.6 1.5-8 4.5-10.5A20 20 0 0 1 592 164c1.8 0 3.7.2 5.6.6 2 .4 3.8 1.2 5.5 2.4a11.6 11.6 0 0 1 3.7 15.5 8.4 8.4 0 0 1-4.2 4M620.8 165h5.5v40.8h-5.5zM668.2 171.5a14 14 0 0 0-8.9-3 13 13 0 0 0-10.7 4.7 19.2 19.2 0 0 0-3.8 12.5c0 2.2.2 4.3.8 6.4a15 15 0 0 0 2.7 5.4c1.2 1.6 2.8 2.8 4.8 3.7a15.5 15.5 0 0 0 12.6 0 12.8 12.8 0 0 0 5.8-5.5l1-2.5 5.5 1.1a18.5 18.5 0 0 1-6.8 9.4c-3.1 2-7 3.1-11.7 3.1-6.8 0-11.9-2-15.4-6-3.6-4.2-5.3-9.3-5.3-15.4a23 23 0 0 1 5.1-15.3c3.5-4.1 8.4-6.2 14.8-6.2 5.5 0 10 1.6 13.5 4.7a21 21 0 0 1 6.6 11.2l-6 .7c-.5-4-2-7-4.6-9M717.3 188.4H695v17.4h-5.5V165h5.5v18.6h22.2V165h5.5v40.8h-5.5zM742.8 183.6h19.9v4.8h-20V201h23v4.8h-28.2V165h28.9v4.7h-23.6zM797.4 187l-2.4-.1h-11.5v14.3H794c2 0 3.5 0 4.8-.3 1.2-.2 2.2-.6 3.1-1.4.9-.7 1.5-1.5 2-2.4.3-.9.5-2 .5-3.3 0-1.6-.4-3-1.2-4.1-.8-1.2-1.8-2-3-2.3l-2.8-.5m10-.6c1.6 1.8 2.4 4.4 2.4 7.6 0 1.9-.3 3.7-1 5.3-.8 1.6-1.8 3-3.3 4.1-1.5 1.2-3 1.8-4.6 2-1.6.3-4 .5-7.5.5h-15.2V165h5.3v17.3h10.6l11-17.3h6.5l-11.4 17.6c3.1.6 5.5 1.8 7.2 3.7M827.8 183.6h20v4.8h-20V201h23v4.8h-28.2V165h28.8v4.7h-23.6zM917.9 188.4h-22.2v17.4h-5.4V165h5.4v18.6h22.2V165h5.5v40.8h-5.5zM944.3 210.1h5v6h-5zM955.7 210.1h5v6h-5zM946.3 182l6.2 17 6-17zm3.4 23.8L934.2 165h5.8l4.5 12.4h15.6l4.5-12.4h5.7l-14.9 40.8zM981.3 165h5.4V184h19.3v4.8h-19.3v12h20.8v4.9h-26.2zM1023.6 183.6h20v4.8h-20V201h23v4.8h-28.2V165h28.8v4.7h-23.6zM1086.3 173l-22.1 32.8h-5.1V165h5l-.4 33.1 22.4-33.1h4.9v40.8h-5zM1108 165h4.5v5.2h-4.6zM1108 189.8l1.3-16.3h1.8l1.4 15.6v16.7h-4.6zM560.6 393.2h-.1zM660.8 396.4c9.8 23.3 23.7 49 42.7 74.7v-43.6a4.8 4.8 0 1 1 9.6 0v56a366.1 366.1 0 0 0 43.2 44.9V489a4.8 4.8 0 0 1 9.6 0v47.4c12.2 10 25.5 19.5 39.9 28.5v-18.3a4.8 4.8 0 1 1 9.6 0v24.1c50 29.1 113.1 51 192.4 58.8h-71.4c-186.6 0-438.9-112.9-525.2-202.4-14.1-15-23.4-19.9-23.4-30.8 91-32.6 163.4 28.8 273 0"/>
  </g>
</svg>
